<?xml version="1.0" encoding="UTF-8" standalone="no"?>
<svg
   xmlns:dc="http://purl.org/dc/elements/1.1/"
   xmlns:cc="http://creativecommons.org/ns#"
   xmlns:rdf="http://www.w3.org/1999/02/22-rdf-syntax-ns#"
   xmlns:svg="http://www.w3.org/2000/svg"
   xmlns="http://www.w3.org/2000/svg"
   xmlns:sodipodi="http://sodipodi.sourceforge.net/DTD/sodipodi-0.dtd"
   xmlns:inkscape="http://www.inkscape.org/namespaces/inkscape"
   inkscape:version="1.0 (4035a4f, 2020-05-01)"
   sodipodi:docname="stickies_neg.svg"
   id="svg14"
   version="1.1"
   viewBox="0 0 16 16"
   class="bi bi-stickies"
   fill="currentColor"
   height="16"
   width="16">
  <metadata
     id="metadata20">
    <rdf:RDF>
      <cc:Work
         rdf:about="">
        <dc:format>image/svg+xml</dc:format>
        <dc:type
           rdf:resource="http://purl.org/dc/dcmitype/StillImage" />
        <dc:title></dc:title>
      </cc:Work>
    </rdf:RDF>
  </metadata>
  <defs
     id="defs18" />
  <sodipodi:namedview
     inkscape:current-layer="svg14"
     inkscape:window-maximized="0"
     inkscape:window-y="84"
     inkscape:window-x="0"
     inkscape:cy="8"
     inkscape:cx="8"
     inkscape:zoom="63"
     showgrid="false"
     id="namedview16"
     inkscape:window-height="1314"
     inkscape:window-width="2134"
     inkscape:pageshadow="2"
     inkscape:pageopacity="0"
     guidetolerance="10"
     gridtolerance="10"
     objecttolerance="10"
     borderopacity="1"
     bordercolor="#666666"
     pagecolor="#ffffff" />
  <path
     style="fill:#ffffff"
     id="path10"
     d="M1.5 0A1.5 1.5 0 0 0 0 1.5V13a1 1 0 0 0 1 1V1.5a.5.5 0 0 1 .5-.5H14a1 1 0 0 0-1-1z" />
  <path
     style="fill:#ffffff"
     id="path12"
     d="M3.5 2A1.5 1.5 0 0 0 2 3.5v11A1.5 1.5 0 0 0 3.5 16h6.086a1.5 1.5 0 0 0 1.06-.44l4.915-4.914A1.5 1.5 0 0 0 16 9.586V3.5A1.5 1.5 0 0 0 14.5 2zM3 3.5a.5.5 0 0 1 .5-.5h11a.5.5 0 0 1 .5.5V9h-4.5A1.5 1.5 0 0 0 9 10.5V15H3.5a.5.5 0 0 1-.5-.5zm7 11.293V10.5a.5.5 0 0 1 .5-.5h4.293z" />
</svg>
